<?xml version="1.0" encoding="UTF-8"?>
<svg xmlns="http://www.w3.org/2000/svg" version="1.1" width="48px" height="48px" viewBox="0 0 48 48 shape-rendering:geometricPrecision; text-rendering:geometricPrecision; image-rendering:optimizeQuality; fill-rule:evenodd; clip-rule:evenodd" xmlns:xlink="http://www.w3.org/1999/xlink">
<g><path style="opacity:1" fill="#30a7eb" d="M 22.5,9.5 C 19.7967,11.11 16.7967,12.11 13.5,12.5C 12.0937,12.9731 11.427,13.9731 11.5,15.5C 13.5499,21.2155 14.0499,27.2155 13,33.5C 12.8267,27.9842 12.3267,22.6509 11.5,17.5C 10.0047,17.5852 9.00475,16.9185 8.5,15.5C 9.81032,12.5268 11.8103,10.1935 14.5,8.5C 11.5535,7.67855 8.55349,7.17855 5.5,7C 4.16667,5.33333 4.16667,3.66667 5.5,2C 13.3953,0.398879 21.3953,0.0655459 29.5,1C 32.6992,2.67901 33.0325,4.67901 30.5,7C 27.4465,7.17855 24.4465,7.67855 21.5,8.5C 21.6236,9.10667 21.9569,9.44001 22.5,9.5 Z"/></g>
<g><path style="opacity:0.937" fill="#ddebf3" d="M 26.5,3.5 C 27.675,3.28099 28.675,3.61432 29.5,4.5C 27.9483,5.79789 26.9483,5.46455 26.5,3.5 Z"/></g>
<g><path style="opacity:1" fill="#d7e8f3" d="M 11.5,3.5 C 15.8839,3.17443 20.2172,3.50776 24.5,4.5C 22.3333,4.83333 20.1667,5.16667 18,5.5C 15.3897,5.46677 13.223,4.80011 11.5,3.5 Z"/></g>
<g><path style="opacity:0.933" fill="#d6e8f3" d="M 6.5,3.5 C 7.67504,3.28099 8.67504,3.61432 9.5,4.5C 7.94835,5.79789 6.94835,5.46455 6.5,3.5 Z"/></g>
<g><path style="opacity:0.996" fill="#a6d9f7" d="M 16.5,6.5 C 17.5,6.5 18.5,6.5 19.5,6.5C 19.5,7.83333 19.5,9.16667 19.5,10.5C 18.5,10.5 17.5,10.5 16.5,10.5C 16.5,9.16667 16.5,7.83333 16.5,6.5 Z"/></g>
<g><path style="opacity:0.998" fill="#f0f3f5" d="M 13.5,12.5 C 16.8499,12.335 20.1832,12.5017 23.5,13C 23.9574,13.414 24.2907,13.914 24.5,14.5C 20.2172,15.4922 15.8839,15.8256 11.5,15.5C 11.427,13.9731 12.0937,12.9731 13.5,12.5 Z"/></g>
<g><path style="opacity:1" fill="#c9e9fc" d="M 14.5,17.5 C 16.8333,17.5 19.1667,17.5 21.5,17.5C 21.5,22.8333 21.5,28.1667 21.5,33.5C 19.1667,33.5 16.8333,33.5 14.5,33.5C 14.5,28.1667 14.5,22.8333 14.5,17.5 Z"/></g>
<g><path style="opacity:0.447" fill="#24a2e7" d="M 26.5,13.5 C 27.4345,14.5676 27.7678,15.901 27.5,17.5C 26.5,17.5 25.5,17.5 24.5,17.5C 24.5,19.5 24.5,21.5 24.5,23.5C 26.1238,23.3601 27.2904,24.0267 28,25.5C 27.8285,17.996 31.3285,14.8294 38.5,16C 39.3333,16.8333 40.1667,17.6667 41,18.5C 40.7938,25.2658 41.9604,31.5992 44.5,37.5C 42.7369,41.1616 40.2369,41.4949 37,38.5C 35.8099,34.6192 35.1432,30.6192 35,26.5C 34.5348,27.9308 33.7014,29.0975 32.5,30C 29.6229,30.9562 26.9562,32.2895 24.5,34C 25.9653,37.0459 27.7987,39.8793 30,42.5C 31.0113,43.3366 32.1779,43.67 33.5,43.5C 33.5,44.5 33.5,45.5 33.5,46.5C 23.1667,46.5 12.8333,46.5 2.5,46.5C 2.5,45.5 2.5,44.5 2.5,43.5C 3.83333,43.5 5.16667,43.5 6.5,43.5C 6.26269,42.209 6.59603,41.209 7.5,40.5C 7.5,41.8333 7.5,43.1667 7.5,44.5C 14.3543,44.824 21.021,44.4907 27.5,43.5C 27.573,41.9731 26.9063,40.9731 25.5,40.5C 25.7373,39.209 25.404,38.209 24.5,37.5C 24.3893,36.8826 24.056,36.3826 23.5,36C 20.5184,35.502 17.5184,35.3354 14.5,35.5C 14.5,35.1667 14.5,34.8333 14.5,34.5C 17.1667,34.5 19.8333,34.5 22.5,34.5C 22.5,28.5 22.5,22.5 22.5,16.5C 23.5,16.5 24.5,16.5 25.5,16.5C 25.2627,15.209 25.596,14.209 26.5,13.5 Z"/></g>
<g><path style="opacity:0.957" fill="#afddf8" d="M 33.5,17.5 C 35.7224,17.178 37.5557,17.8446 39,19.5C 39.3333,24.8333 39.6667,30.1667 40,35.5C 40.9246,36.0465 41.7579,36.7132 42.5,37.5C 40.5302,38.4431 39.0302,37.7764 38,35.5C 37.5006,30.1771 37.334,24.8437 37.5,19.5C 35.8561,19.2865 34.3561,19.6198 33,20.5C 32.6667,22.8333 32.3333,25.1667 32,27.5C 30.7592,29.4206 29.2592,29.754 27.5,28.5C 28.6283,27.7379 29.7949,27.0712 31,26.5C 31.0566,23.1888 31.8899,20.1888 33.5,17.5 Z"/></g>
<g><path style="opacity:0.953" fill="#9bd5f5" d="M 14.5,17.5 C 16.9479,16.5269 19.6146,16.1936 22.5,16.5C 22.5,22.5 22.5,28.5 22.5,34.5C 19.8333,34.5 17.1667,34.5 14.5,34.5C 14.5,34.1667 14.5,33.8333 14.5,33.5C 16.8333,33.5 19.1667,33.5 21.5,33.5C 21.5,28.1667 21.5,22.8333 21.5,17.5C 19.1667,17.5 16.8333,17.5 14.5,17.5 Z"/></g>
<g><path style="opacity:0.935" fill="#a3d3ef" d="M 23.5,25.5 C 24.5,25.5 25.5,25.5 26.5,25.5C 26.5,27.5 26.5,29.5 26.5,31.5C 25.5,31.5 24.5,31.5 23.5,31.5C 23.5,29.5 23.5,27.5 23.5,25.5 Z"/></g>
<g><path style="opacity:0.635" fill="#44aeeb" d="M 22.5,9.5 C 24.7727,9.95681 26.106,11.2901 26.5,13.5C 25.596,14.209 25.2627,15.209 25.5,16.5C 24.5,16.5 23.5,16.5 22.5,16.5C 19.6146,16.1936 16.9479,16.5269 14.5,17.5C 14.5,22.8333 14.5,28.1667 14.5,33.5C 14.5,33.8333 14.5,34.1667 14.5,34.5C 14.5,34.8333 14.5,35.1667 14.5,35.5C 13.1882,36.1451 12.1882,37.1451 11.5,38.5C 13.6667,38.8333 15.8333,39.1667 18,39.5C 20.6103,39.4668 22.777,38.8001 24.5,37.5C 25.404,38.209 25.7373,39.209 25.5,40.5C 20.1254,40.1718 14.7921,40.5052 9.5,41.5C 9.29069,42.086 8.95735,42.586 8.5,43C 14.8246,43.4995 21.1579,43.6662 27.5,43.5C 21.021,44.4907 14.3543,44.824 7.5,44.5C 7.5,43.1667 7.5,41.8333 7.5,40.5C 9.12073,38.8525 10.2874,36.8525 11,34.5C 11.4994,28.8431 11.6661,23.1764 11.5,17.5C 12.3267,22.6509 12.8267,27.9842 13,33.5C 14.0499,27.2155 13.5499,21.2155 11.5,15.5C 15.8839,15.8256 20.2172,15.4922 24.5,14.5C 24.2907,13.914 23.9574,13.414 23.5,13C 20.1832,12.5017 16.8499,12.335 13.5,12.5C 16.7967,12.11 19.7967,11.11 22.5,9.5 Z"/></g>
<g><path style="opacity:0.997" fill="#d9e9f3" d="M 14.5,35.5 C 17.5184,35.3354 20.5184,35.502 23.5,36C 24.056,36.3826 24.3893,36.8826 24.5,37.5C 22.777,38.8001 20.6103,39.4668 18,39.5C 15.8333,39.1667 13.6667,38.8333 11.5,38.5C 12.1882,37.1451 13.1882,36.1451 14.5,35.5 Z"/></g>
<g><path style="opacity:0.998" fill="#edf1f4" d="M 25.5,40.5 C 26.9063,40.9731 27.573,41.9731 27.5,43.5C 21.1579,43.6662 14.8246,43.4995 8.5,43C 8.95735,42.586 9.29069,42.086 9.5,41.5C 14.7921,40.5052 20.1254,40.1718 25.5,40.5 Z"/></g>
</svg>
